<svg xmlns="http://www.w3.org/2000/svg" viewBox="0 0 128 128" width="16" height="16" fill="context-fill" fill-rule="evenodd" fill-opacity="context-fill-opacity"><path d="m64.003 128c56-32 56-32 56-112-24 0-32 0-56-16m0 128c-56-32-56-32-56-112 24 0 32 0 56-16zm-1e-3 -11.997c45.5-26 45.5-26 45.5-91.001-19.5 0-26 0-45.5-13m0 104c-45.5-26-45.5-26-45.5-91.001 19.5 0 26 0 45.5-13zm-3e-3 -51.999c0 11-5 16-16 16s-16-5-16-16v-24h8v24c0 7 1 8 8 8s8-1 8-8v-24h8z"/><path d="m56 60a18 18 0 1 1 40 0 18 18 0 1 1-40 0m8 0a12 12 0 1 1 24 0 12 12 0 1 1-24 0"/></svg>